# xmcd
#
# Track frame offsets:
#	150
#	17612
#	44587
#	73600
#	109625
#	130075
#	157900
#	190262
#	217575
#	246512
#	272562
#	296187
#
# Disc length: 4308
#
# Revision: 1
# Processed by: cddbd v1.5.1PL0 Copyright (c) Steve Scherf et al.
# Submitted via: CDex 1.50
# Normalized: r0:DSETVAR1,TDELIM( - )
#
DISCID=aa10d20c
DTITLE=Various Artist - Jazz Bible - all music guide to jazz Vol.1 from A to K
DYEAR=1900
DGENRE=Jazz
TTITLE0=Sonny Rollins - Mona Lisa
TTITLE1=Phil Woods, Vincent Herring, Antonio Hart - Autumn In New York
TTITLE2=J. J. Johnson - It's Only A Paper Moon
TTITLE3=Dream Session - Autumn Leaves
TTITLE4=Thelonious Monk - Smoke Gets In Your Eyes
TTITLE5=Milt Jackson - Feeling
TTITLE6=Ray Brown - Georgia On My Mind
TTITLE7=Bill Evans - Summertime
TTITLE8=Woody Herman - Summer Of 42
TTITLE9=George Mraz - Cinema Paradiso
TTITLE10=Eddie Henderson - On Green Dolphin Street
TTITLE11=Miles Davis Quintet - My Funny Valentine
EXTD=
EXTT0=
EXTT1=
EXTT2=
EXTT3=
EXTT4=
EXTT5=
EXTT6=
EXTT7=
EXTT8=
EXTT9=
EXTT10=
EXTT11=
PLAYORDER=
